# xmcd
#
# Track frame offsets:
#	150
#	32468
#	60239
#	100790
#	127818
#	164799
#	202969
#	241749
#	278058
#
# Disc length: 4364 seconds
#
# Revision: 1
# Processed by: cddbd v1.5.2PL0 Copyright (c) Steve Scherf et al.
# Submitted via: audiograbber 1.83.01
#
DISCID=6a110a09
DTITLE=Grateful Dead - 76-06-24 Tower Theatre, Upper Darby PA
DYEAR=1900
DGENRE=
TTITLE0=Cold Rain and Snow
TTITLE1=Big River
TTITLE2=Friend Of The Devil
TTITLE3=Cassidy
TTITLE4=It Must Have Been The Roses
TTITLE5=Lazy Lightning > Supplication
TTITLE6=Tennessee Jed
TTITLE7=Looks Like Rain
TTITLE8=Scarlet Begonias
EXTD=
EXTT0=
EXTT1=
EXTT2=
EXTT3=
EXTT4=
EXTT5=
EXTT6=
EXTT7=
EXTT8=
PLAYORDER=
